<?xml version="1.0" standalone="no"?>
<!DOCTYPE svg PUBLIC "-//W3C//DTD SVG 20010904//EN"
 "http://www.w3.org/TR/2001/REC-SVG-20010904/DTD/svg10.dtd">
<svg version="1.0" xmlns="http://www.w3.org/2000/svg"
 width="1632.000000pt" height="1634.000000pt" viewBox="0 0 1632.000000 1634.000000"
 preserveAspectRatio="xMidYMid meet">

<g transform="translate(0.000000,1634.000000) scale(0.100000,-0.100000)"
fill="#000000" stroke="none">
<path d="M7685 16319 c-1324 -84 -2612 -477 -3705 -1131 -1059 -634 -2064
-1620 -2756 -2703 -904 -1416 -1315 -3082 -1203 -4875 111 -1783 773 -3384
1983 -4790 54 -63 109 -128 122 -145 21 -26 25 -28 37 -15 12 12 1113 1645
2950 4375 170 253 321 473 336 488 14 16 67 48 116 72 157 75 233 181 243 340
9 147 -47 269 -163 357 -121 92 -315 103 -448 25 -60 -36 -134 -118 -165 -185
-25 -54 -27 -66 -27 -202 0 -92 -4 -152 -12 -165 -6 -11 -269 -402 -585 -870
-315 -467 -960 -1423 -1432 -2122 -472 -700 -862 -1273 -867 -1273 -12 0 -199
251 -300 402 -711 1060 -1139 2236 -1263 3463 -58 578 -53 1210 15 1758 92
748 295 1469 614 2182 91 202 243 498 266 518 20 16 94 17 1244 17 l1223 0 30
-25 c17 -14 162 -220 323 -458 161 -237 719 -1060 1239 -1827 521 -767 952
-1405 959 -1418 13 -24 37 12 -2909 -4327 -1108 -1633 -1010 -1485 -1010
-1512 0 -23 -12 -13 423 -377 469 -392 835 -644 1332 -916 992 -544 2184 -883
3370 -960 206 -13 764 -13 970 0 509 33 988 108 1494 235 1678 421 3081 1286
4201 2588 1072 1248 1721 2681 1919 4237 82 642 86 1381 10 2050 -162 1434
-688 2753 -1562 3915 -123 165 -220 285 -427 532 -41 50 -80 98 -86 109 -7 10
-14 17 -17 14 -5 -5 -1732 -2565 -2712 -4020 -313 -465 -586 -868 -607 -897
-29 -39 -48 -55 -85 -68 -214 -76 -316 -194 -330 -376 -10 -122 25 -217 113
-309 63 -66 134 -104 227 -121 170 -32 352 61 430 220 31 63 32 71 34 195 l2
130 218 323 c120 178 787 1167 1483 2199 l1265 1875 33 -38 c52 -59 260 -353
360 -508 345 -539 638 -1153 829 -1735 206 -630 327 -1253 373 -1920 13 -189
13 -756 0 -952 -68 -1008 -310 -1936 -743 -2840 -108 -226 -245 -475 -270
-493 -19 -13 -167 -15 -1242 -15 -1143 0 -1222 1 -1248 18 -16 10 -266 372
-634 917 -333 495 -887 1316 -1230 1824 -344 508 -632 938 -640 956 -14 29
-14 35 2 65 10 19 185 282 390 585 204 302 927 1374 1605 2380 678 1007 1402
2080 1609 2385 206 305 376 566 379 580 3 22 -25 49 -213 213 -260 227 -409
348 -615 497 -861 624 -1778 1057 -2775 1308 -455 115 -877 185 -1375 228
-218 18 -905 27 -1115 13z m990 -509 c1044 -77 1973 -328 2867 -775 385 -193
796 -441 1098 -664 143 -105 455 -353 468 -371 17 -24 24 -12 -177 -309 -92
-135 -326 -482 -520 -771 -194 -289 -364 -535 -378 -547 l-24 -23 -1382 0
c-1297 0 -1384 -1 -1410 -18 -22 -13 -154 -235 -524 -882 -631 -1104 -624
-1092 -634 -1088 -5 2 -204 334 -443 738 l-435 735 297 3 c163 1 311 0 329 -3
18 -3 51 -22 75 -42 24 -20 72 -50 108 -67 60 -29 73 -31 170 -31 97 0 110 2
173 32 258 122 316 470 110 664 -153 145 -397 153 -549 17 -22 -19 -49 -40
-61 -47 -32 -17 -4293 -16 -4293 1 0 20 457 468 595 582 825 686 1782 1148
2795 1350 802 160 1694 160 2465 0 316 -66 814 -213 955 -282 50 -24 59 -34
94 -102 82 -156 202 -229 377 -230 159 0 283 78 356 228 37 73 38 80 38 182 0
95 -3 110 -28 163 -42 85 -123 168 -199 203 -57 26 -73 29 -168 28 -58 0 -130
-4 -160 -8 -53 -8 -66 -5 -247 57 -976 335 -1951 457 -2905 362 -1202 -120
-2426 -593 -3383 -1309 -414 -309 -825 -702 -1154 -1101 -45 -55 -94 -108
-109 -117 -25 -16 -70 -18 -564 -18 -296 0 -538 4 -538 8 0 16 152 238 279
406 732 973 1640 1728 2726 2266 965 478 1930 732 3000 790 190 10 713 4 910
-10z m-176 -10726 c220 -385 403 -708 407 -717 6 -16 -12 -17 -196 -17 -118 0
-209 4 -220 10 -11 6 -48 32 -84 59 -35 27 -87 57 -116 66 -105 35 -259 14
-359 -49 -59 -37 -128 -121 -151 -184 -86 -227 29 -476 252 -543 140 -43 293
-11 406 84 24 20 57 39 75 42 18 3 955 4 2082 3 l2050 -3 -115 -114 c-951
-941 -2187 -1549 -3525 -1735 -324 -45 -430 -51 -850 -51 -468 0 -686 17
-1075 86 -294 52 -725 163 -762 196 -11 10 -32 42 -46 71 -38 80 -112 156
-190 194 -63 31 -72 33 -177 33 -102 0 -115 -2 -176 -31 -256 -122 -315 -456
-115 -656 108 -107 239 -141 405 -103 l76 17 210 -60 c1136 -325 2341 -347
3473 -62 1334 335 2484 1029 3406 2054 54 60 109 119 123 130 50 39 96 41 636
36 l518 -5 -50 -72 c-359 -521 -900 -1101 -1421 -1523 -1194 -966 -2562 -1532
-4065 -1684 -383 -39 -916 -50 -1270 -26 -1310 87 -2563 507 -3680 1235 -130
84 -345 236 -440 310 -177 137 -325 259 -329 272 -3 8 -1 24 6 36 10 21 967
1433 981 1449 1 2 601 5 1334 8 l1331 5 25 23 c14 13 62 87 108 165 204 350
1052 1783 1062 1795 13 16 -35 95 446 -744z"/>
</g>
</svg>
