<svg xmlns="http://www.w3.org/2000/svg" xmlns:xlink="http://www.w3.org/1999/xlink" width="26" height="26" viewBox="0 0 26 26"><defs><style>.a{fill:none;}.b{clip-path:url(#a);}.c{fill:#1777ff;}</style><clipPath id="a"><rect class="a" width="26" height="26"/></clipPath></defs><g class="b"><path class="c" d="M13,0A13,13,0,1,0,26,13,13,13,0,0,0,13,0m5.206,15.644L13,20.851,2.6,10.448A.9.9,0,0,1,3.864,9.18L13,18.316l3.939-3.939a.9.9,0,1,1,1.268,1.268m4.54,1.416a.893.893,0,0,1-.634-.263L13,7.684,9.06,11.623a.9.9,0,0,1-1.268-1.268L13,5.149,23.38,15.53a.9.9,0,0,1-.634,1.53"/></g></svg>