<svg xmlns="http://www.w3.org/2000/svg" xmlns:xlink="http://www.w3.org/1999/xlink" width="26" height="26" viewBox="0 0 26 26"><defs><style>.a{fill:none;}.b{clip-path:url(#a);}.c{fill:#1777ff;}</style><clipPath id="a"><rect class="a" width="26" height="26"/></clipPath></defs><g class="b"><path d="M14.05,30.006,2.166,18.123a.9.9,0,1,1,1.268-1.268L14.05,27.47l3.939-3.939A.9.9,0,0,1,19.256,24.8Z" transform="translate(-1.05 -9.154)"/><path class="c" d="M33.516,24.9a.892.892,0,0,1-.634-.263L22.266,14.02,18.327,17.96a.9.9,0,0,1-1.268-1.268l5.207-5.207L34.149,23.368a.9.9,0,0,1-.634,1.53" transform="translate(-9.267 -6.337)"/><path d="M13,1.793A11.207,11.207,0,1,1,1.793,13,11.22,11.22,0,0,1,13,1.793M13,0A13,13,0,1,0,26,13,13,13,0,0,0,13,0"/></g></svg>