<svg xmlns="http://www.w3.org/2000/svg" xmlns:xlink="http://www.w3.org/1999/xlink" width="20.725" height="26" viewBox="0 0 20.725 26"><defs><style>.a{fill:none;}.b{clip-path:url(#a);}.c{fill:#1777ff;}</style><clipPath id="a"><rect class="a" width="20.725" height="26" transform="translate(0 0)"/></clipPath></defs><g transform="translate(0 0)"><g class="b" transform="translate(0 0)"><path class="c" d="M6.658,10.245H5.212V6.413a.881.881,0,0,0-1.761,0v3.832H2a2,2,0,0,0-2,2V23.857a2,2,0,0,0,2,2H3.45v2.355a.881.881,0,1,0,1.761,0V25.86H6.658a2,2,0,0,0,2-2V12.248a2,2,0,0,0-2-2" transform="translate(0 -3.096)"/><path class="c" d="M34.052,3.245H32.606V.881a.881.881,0,1,0-1.761,0V3.245H29.4a2,2,0,0,0-2,2V16.857a2,2,0,0,0,2,2h1.454c0,.024-.007.047-.007.072v3.832a.881.881,0,1,0,1.761,0V18.932c0-.025-.005-.048-.007-.072h1.454a2,2,0,0,0,2-2V5.248a2,2,0,0,0-2-2" transform="translate(-15.331 0)"/></g></g></svg>