<svg xmlns="http://www.w3.org/2000/svg" xmlns:xlink="http://www.w3.org/1999/xlink" width="20.725" height="26" viewBox="0 0 20.725 26"><defs><style>.a{fill:none;}.b{clip-path:url(#a);}.c{fill:#1777ff;}</style><clipPath id="a"><rect class="a" width="20.725" height="26"/></clipPath></defs><g class="b"><path class="c" d="M8.716,53.811a.881.881,0,0,1-.881-.881V50.575a.881.881,0,1,1,1.761,0V52.93a.881.881,0,0,1-.881.881" transform="translate(-4.385 -27.811)"/><path d="M8.716,11.125a.881.881,0,0,1-.881-.881V6.413a.881.881,0,1,1,1.761,0v3.832a.881.881,0,0,1-.881.881" transform="translate(-4.385 -3.096)"/><path d="M36.11,46.585a.881.881,0,0,1-.881-.881V41.873a.881.881,0,1,1,1.761,0V45.7a.881.881,0,0,1-.881.881" transform="translate(-19.716 -22.941)"/><path class="c" d="M36.11,4.126a.881.881,0,0,1-.881-.881V.881a.881.881,0,1,1,1.761,0V3.245a.881.881,0,0,1-.881.881" transform="translate(-19.716)"/><path d="M6.658,18a.242.242,0,0,1,.242.242V29.847a.242.242,0,0,1-.242.242H2a.242.242,0,0,1-.242-.242V18.238A.242.242,0,0,1,2,18Zm0-1.761H2a2,2,0,0,0-2,2V29.847a2,2,0,0,0,2,2H6.658a2,2,0,0,0,2-2V18.238a2,2,0,0,0-2-2" transform="translate(0 -9.086)"/><path d="M34.052,9.131a.242.242,0,0,1,.242.242V20.982a.242.242,0,0,1-.242.242H29.4a.242.242,0,0,1-.242-.242V9.373a.242.242,0,0,1,.242-.242Zm0-1.761H29.4a2,2,0,0,0-2,2V20.982a2,2,0,0,0,2,2h4.655a2,2,0,0,0,2-2V9.373a2,2,0,0,0-2-2" transform="translate(-15.331 -4.125)"/></g></svg>