<svg xmlns="http://www.w3.org/2000/svg" xmlns:xlink="http://www.w3.org/1999/xlink" width="26" height="26" viewBox="0 0 26 26"><defs><style>.a{fill:#1777ff;}.b{clip-path:url(#a);}</style><clipPath id="a"><rect class="a" width="26" height="26"/></clipPath></defs><g transform="translate(0 0)"><g class="b" transform="translate(0 0)"><path class="a" d="M25.054,9.371,14,.357A1.587,1.587,0,0,0,12,.357L.946,9.371A2.453,2.453,0,0,0,0,11.305V23.547A2.456,2.456,0,0,0,2.458,26H23.542A2.456,2.456,0,0,0,26,23.547V11.305a2.451,2.451,0,0,0-.946-1.934M17.928,20.82H8.046a.9.9,0,1,1,0-1.793h9.882a.9.9,0,1,1,0,1.793" transform="translate(0 0)"/></g></g></svg>