<svg xmlns="http://www.w3.org/2000/svg" xmlns:xlink="http://www.w3.org/1999/xlink" width="25.948" height="26" viewBox="0 0 25.948 26"><defs><style>.a{fill:none;}.b{clip-path:url(#a);}.c{fill:#1777ff;}</style><clipPath id="a"><rect class="a" width="25.948" height="26"/></clipPath></defs><g transform="translate(0 0)"><g class="b" transform="translate(0 0)"><path d="M12.974,1.855l10.895,8.9.016.013.016.013a.655.655,0,0,1,.254.521V23.547a.661.661,0,0,1-.66.66H2.453a.661.661,0,0,1-.66-.66V11.305a.656.656,0,0,1,.254-.521l.016-.013.016-.013Zm0-1.855a1.578,1.578,0,0,0-1,.357L.945,9.371A2.453,2.453,0,0,0,0,11.305V23.547A2.454,2.454,0,0,0,2.453,26H23.494a2.454,2.454,0,0,0,2.453-2.453V11.305A2.453,2.453,0,0,0,25,9.371L13.975.357a1.578,1.578,0,0,0-1-.357" transform="translate(0 0)"/><path class="c" d="M26.671,44.237H16.809a.9.9,0,0,1,0-1.793h9.862a.9.9,0,1,1,0,1.793" transform="translate(-8.779 -23.417)"/></g></g></svg>