<svg xmlns="http://www.w3.org/2000/svg" xmlns:xlink="http://www.w3.org/1999/xlink" width="26" height="25.554" viewBox="0 0 26 25.554"><defs><style>.a{fill:none;}.b{clip-path:url(#a);}.c{fill:#1777ff;}</style><clipPath id="a"><rect class="a" width="26" height="25.554"/></clipPath></defs><g transform="translate(0 0)"><g class="b" transform="translate(0 0)"><path class="c" d="M18.585,1.793a1.8,1.8,0,0,1,1.8,1.8V6.5L8.33,6.514,1.793,6.5V3.591a1.8,1.8,0,0,1,1.8-1.8Zm0-1.793H3.591A3.591,3.591,0,0,0,0,3.591v4.7l8.327.018L22.175,8.29v-4.7A3.591,3.591,0,0,0,18.585,0" transform="translate(0 0)"/><path d="M22.171,16.3a2.039,2.039,0,0,1,2.036,2.037V29.728a2.039,2.039,0,0,1-2.036,2.036H3.829a2.039,2.039,0,0,1-2.036-2.036V16.3Zm0-1.793H0V29.728a3.829,3.829,0,0,0,3.829,3.829H22.171A3.829,3.829,0,0,0,26,29.728V18.335a3.83,3.83,0,0,0-3.829-3.83" transform="translate(0 -8.003)"/><path class="c" d="M47.716,34.653a.9.9,0,1,1-.9-.9.9.9,0,0,1,.9.9" transform="translate(-25.337 -18.624)"/></g></g></svg>