<svg xmlns="http://www.w3.org/2000/svg" xmlns:xlink="http://www.w3.org/1999/xlink" width="26" height="26" viewBox="0 0 26 26"><defs><style>.a{fill:none;}.b{clip-path:url(#a);}.c{fill:#1777ff;}</style><clipPath id="a"><rect class="a" width="26" height="26"/></clipPath></defs><g class="b"><path class="c" d="M22.17,0H3.829A3.829,3.829,0,0,0,0,3.829V22.171A3.829,3.829,0,0,0,3.829,26H22.17A3.83,3.83,0,0,0,26,22.171V3.829A3.83,3.83,0,0,0,22.17,0M9.9,17.148,7.366,19.687A.9.9,0,0,1,6.1,18.419l2.355-2.355L6.1,13.709a.9.9,0,0,1,1.268-1.268L9.9,14.98a1.536,1.536,0,0,1,0,2.169m10.793,2.8h-7.44a.9.9,0,1,1,0-1.793H20.7a.9.9,0,1,1,0,1.793m0-6.052h-7.44a.9.9,0,0,1,0-1.793H20.7a.9.9,0,1,1,0,1.793m0-6.052H5.818a.9.9,0,0,1,0-1.793H20.7a.9.9,0,1,1,0,1.793"/></g></svg>