<svg xmlns="http://www.w3.org/2000/svg" xmlns:xlink="http://www.w3.org/1999/xlink" width="26" height="26" viewBox="0 0 26 26"><defs><style>.a{fill:none;}.b{clip-path:url(#a);}.c{fill:#1777ff;}</style><clipPath id="a"><rect class="a" width="26" height="26"/></clipPath></defs><g class="b"><path d="M22.171,1.793a2.039,2.039,0,0,1,2.036,2.036V22.17a2.039,2.039,0,0,1-2.036,2.037H3.829A2.039,2.039,0,0,1,1.793,22.17V3.829A2.039,2.039,0,0,1,3.829,1.793Zm0-1.793H3.829A3.829,3.829,0,0,0,0,3.829V22.17A3.83,3.83,0,0,0,3.829,26H22.171A3.83,3.83,0,0,0,26,22.17V3.829A3.829,3.829,0,0,0,22.171,0"/><path class="c" d="M13.915,34.938a.9.9,0,0,1-.634-1.53l2.355-2.355L13.281,28.7a.9.9,0,1,1,1.268-1.268l2.538,2.538a1.534,1.534,0,0,1,0,2.17l-2.538,2.538a.894.894,0,0,1-.634.263m1.9-3.7h0Z" transform="translate(-7.182 -14.989)"/><path d="M35.91,42.293h-7.44a.9.9,0,0,1,0-1.793h7.44a.9.9,0,0,1,0,1.793" transform="translate(-15.213 -22.345)"/><path d="M35.91,28.793h-7.44a.9.9,0,0,1,0-1.793h7.44a.9.9,0,0,1,0,1.793" transform="translate(-15.213 -14.897)"/><path d="M26.754,15.293H11.875a.9.9,0,1,1,0-1.793H26.754a.9.9,0,0,1,0,1.793" transform="translate(-6.057 -7.448)"/></g></svg>