<svg xmlns="http://www.w3.org/2000/svg" xmlns:xlink="http://www.w3.org/1999/xlink" width="16" height="16" viewBox="0 0 16 16"><defs><style>.a{fill:none;}.b{clip-path:url(#a);}.c{fill:#1777ff;}</style><clipPath id="a"><rect class="a" width="16" height="16" transform="translate(0 0)"/></clipPath></defs><g transform="translate(0 0)"><g class="b" transform="translate(0 0)"><path class="c" d="M8,16a8,8,0,1,1,8-8,8.009,8.009,0,0,1-8,8M8,1.4a6.6,6.6,0,1,0,6.6,6.6A6.6,6.6,0,0,0,8,1.4" transform="translate(0 0)"/><path class="c" d="M18.54,22.185H11.6a.7.7,0,1,1,0-1.4H18.54a.7.7,0,1,1,0,1.4" transform="translate(-7.07 -13.482)"/><path class="c" d="M21.482,19.243a.7.7,0,0,1-.7-.7V11.6a.7.7,0,1,1,1.4,0v6.942a.7.7,0,0,1-.7.7" transform="translate(-13.483 -7.069)"/></g></g></svg>