<svg xmlns="http://www.w3.org/2000/svg" xmlns:xlink="http://www.w3.org/1999/xlink" width="10" height="10" viewBox="0 0 10 10"><defs><style>.a{fill:none;}.b{clip-path:url(#a);}.c{fill:#b0b0b0;}</style><clipPath id="a"><rect class="a" width="10" height="10"/></clipPath></defs><g transform="translate(0 0.001)"><g class="b" transform="translate(0 0)"><path class="c" d="M5.808,16.638H1.171A1.172,1.172,0,0,1,0,15.468V10.83A1.172,1.172,0,0,1,1.171,9.659H5.808A1.172,1.172,0,0,1,6.98,10.83v4.637a1.172,1.172,0,0,1-1.171,1.171M1.171,10.6a.233.233,0,0,0-.233.233v4.637a.233.233,0,0,0,.233.233H5.808a.233.233,0,0,0,.233-.233V10.83a.233.233,0,0,0-.233-.233Z" transform="translate(0 -6.638)"/><path class="c" d="M15.122,6.979H13.2V6.041h1.919a.58.58,0,0,0,.579-.579V1.517a.58.58,0,0,0-.579-.579H11.177a.58.58,0,0,0-.579.579V3.489H9.66V1.517A1.519,1.519,0,0,1,11.177,0h3.944a1.519,1.519,0,0,1,1.518,1.517V5.462a1.519,1.519,0,0,1-1.518,1.518" transform="translate(-6.639 0)"/></g></g></svg>