<svg xmlns="http://www.w3.org/2000/svg" xmlns:xlink="http://www.w3.org/1999/xlink" width="99" height="101.666" viewBox="0 0 99 101.666"><defs><style>.a{fill:none;}.b{clip-path:url(#a);}.c{fill:#eee;}.d{fill:#1777ff;}.e{fill:#fff;}</style><clipPath id="a"><rect class="a" width="99" height="101.666"/></clipPath></defs><g class="b"><path class="c" d="M136.748,68.452,99.5,54.933a1.737,1.737,0,0,0-2.186,1.015L79.168,105.7a1.758,1.758,0,0,0,1.016,2.186l37.248,13.519a1.737,1.737,0,0,0,2.186-1.017l18.147-49.751a1.679,1.679,0,0,0-.968-2.168l-.048-.018Z" transform="translate(-38.877 -26.959)"/><path class="d" d="M13.239,64.628,50.486,51.109a3.636,3.636,0,0,1,4.667,2.16l.009.025,18.144,49.757a3.655,3.655,0,0,1-2.186,4.676L33.873,121.246a3.635,3.635,0,0,1-4.666-2.157l-.01-.027L11.055,69.354a3.693,3.693,0,0,1,2.186-4.732Zm19.567,52.856L69.6,104.118,51.611,54.871,14.822,68.235Z" transform="translate(-5.324 -25.016)"/><path class="c" d="M90.391,1.624l5.387,3.914a.657.657,0,0,1-.764,1.069L89.578,2.693a.651.651,0,0,1-.16-.906l.007-.01a.721.721,0,0,1,.966-.153" transform="translate(-43.902 -0.739)"/><path class="c" d="M91.993,6.427a.657.657,0,0,1-1.069-.763L94.842.275a.657.657,0,0,1,1.069.763L91.995,6.427Z" transform="translate(-44.64 0)"/><path class="d" d="M22.727,55.412l2.6,5.236a.577.577,0,0,1-.255.764.56.56,0,0,1-.755-.239l-.008-.016-2.6-5.234a.577.577,0,0,1,.254-.763.535.535,0,0,1,.733.193.448.448,0,0,1,.031.061Z" transform="translate(-10.644 -27.081)"/><path class="d" d="M19.306,61.508a.56.56,0,0,1-.755-.239l-.008-.016a.577.577,0,0,1,.254-.764l5.236-2.541a.56.56,0,0,1,.755.238l.008.015a.578.578,0,0,1-.255.763c0,.051-5.234,2.542-5.234,2.542Z" transform="translate(-9.087 -28.457)"/><path class="c" d="M5.216,112.842a5.227,5.227,0,1,0,5.237,5.216,5.227,5.227,0,0,0-5.237-5.216m.021,7.855v0a2.6,2.6,0,1,1,2.595-2.6,2.595,2.595,0,0,1-2.595,2.6" transform="translate(0 -55.475)"/><path class="d" d="M186.537,44.713a2.6,2.6,0,0,0-2.6,2.6,2.54,2.54,0,0,0,2.484,2.6h.112a2.6,2.6,0,0,0,0-5.191m1.32,2.6a1.382,1.382,0,0,1-1.32,1.317v0a1.322,1.322,0,1,1,1.32-1.323Z" transform="translate(-90.429 -21.982)"/><path class="d" d="M49.186,33.03H93.961l-1.117,7.726A5.19,5.19,0,0,0,97.15,46.7l.064.01c.153,0,.306.05.406.05l9,.611v62.708a7.829,7.829,0,0,1-7.827,7.827h-49.6a7.831,7.831,0,0,1-7.827-7.827V40.959a7.885,7.885,0,0,1,7.827-7.929" transform="translate(-20.333 -16.238)"/><path class="e" d="M106.558,54.248,99.7,53.79c-.2,0-.356-.05-.559-.05A6.936,6.936,0,0,1,93.4,45.863l.763-5.236H53.751a5.618,5.618,0,0,0-5.59,5.645V112.9a5.618,5.618,0,0,0,5.587,5.648h47.217a5.617,5.617,0,0,0,5.592-5.643V112.9Z" transform="translate(-23.677 -19.973)"/><path class="d" d="M138.761,35.672,151.62,50l2.9-2.644L141.864,33.03l-3.1,2.643Z" transform="translate(-68.217 -16.238)"/><path class="d" d="M59.018,84.3h22.21a1.984,1.984,0,0,1,0,3.969H59.016a1.751,1.751,0,0,1-1.985-1.481,1.775,1.775,0,0,1,0-.5A1.795,1.795,0,0,1,59.018,84.3m0,9.148h22.21a1.984,1.984,0,0,1,0,3.969H59.016a1.752,1.752,0,0,1-1.985-1.984,1.795,1.795,0,0,1,1.986-1.985m0,9.149h44.469a1.984,1.984,0,1,1,0,3.969H59.018a1.753,1.753,0,0,1-1.985-1.985,1.794,1.794,0,0,1,1.985-1.984m0,9.2h44.469a1.984,1.984,0,1,1,0,3.969H59.018a1.752,1.752,0,0,1-1.985-1.984c.051-1.374.712-1.985,1.985-1.985" transform="translate(-28.029 -41.44)"/></g></svg>