<svg xmlns="http://www.w3.org/2000/svg" xmlns:xlink="http://www.w3.org/1999/xlink" width="29" height="29" viewBox="0 0 29 29"><defs><style>.a{fill:#fbfbfb;}.b{fill:#1777ff;}.c{filter:url(#a);}</style><filter id="a" x="0" y="0" width="29" height="29" filterUnits="userSpaceOnUse"><feOffset input="SourceAlpha"/><feGaussianBlur stdDeviation="0.5" result="b"/><feFlood flood-color="#2457ff" flood-opacity="0.2"/><feComposite operator="in" in2="b"/><feComposite in="SourceGraphic"/></filter></defs><g transform="translate(-5386.5 -204.133)"><g class="c" transform="matrix(1, 0, 0, 1, 5386.5, 204.13)"><path class="a" d="M26,13A13,13,0,1,1,13,0,13,13,0,0,1,26,13" transform="translate(1.5 1.5)"/></g><path class="b" d="M25.188,33.587a3.519,3.519,0,0,1-3.514-3.515V20.438a.847.847,0,0,1,1.695,0v9.634a1.822,1.822,0,0,0,1.82,1.82.847.847,0,1,1,0,1.695" transform="translate(5374.18 192.044)"/><path class="b" d="M21.494,22.789a.844.844,0,0,1-.6-.248L18.64,20.286l-2.256,2.255a.847.847,0,1,1-1.2-1.2l2.424-2.424a1.457,1.457,0,0,1,2.059,0l2.424,2.424a.847.847,0,0,1-.6,1.446" transform="translate(5378.349 193.445)"/><path class="b" d="M42.158,28.821c-.468,0-.847-.28-.847-.625v-7.11c0-.741-.817-1.343-1.82-1.343-.468,0-.847-.28-.847-.625s.38-.625.847-.625c1.938,0,3.515,1.163,3.515,2.594V28.2c0,.345-.38.625-.847.625" transform="translate(5363.359 194.511)"/><path class="b" d="M41.9,46.776a1.452,1.452,0,0,1-1.029-.425L38.45,43.927a.847.847,0,1,1,1.2-1.2L41.9,44.984l2.255-2.256a.847.847,0,0,1,1.2,1.2l-2.424,2.424a1.454,1.454,0,0,1-1.03.425" transform="translate(5363.32 178.153)"/></g></svg>