<svg xmlns="http://www.w3.org/2000/svg" xmlns:xlink="http://www.w3.org/1999/xlink" width="20" height="20" viewBox="0 0 20 20"><defs><style>.a{fill:none;}.b{clip-path:url(#a);}.c{fill:#1777ff;}</style><clipPath id="a"><rect class="a" width="20" height="20"/></clipPath></defs><g transform="translate(0 0)"><g class="b" transform="translate(0 0)"><path class="c" d="M.785,7.079A.786.786,0,0,1,0,6.294v-4A2.3,2.3,0,0,1,2.3,0h4a.785.785,0,1,1,0,1.57h-4a.726.726,0,0,0-.726.725v4a.786.786,0,0,1-.785.785" transform="translate(0 0)"/><path class="c" d="M39.192,7.079a.786.786,0,0,1-.785-.785v-4a.726.726,0,0,0-.726-.725h-4a.785.785,0,1,1,0-1.57h4a2.3,2.3,0,0,1,2.3,2.3v4a.786.786,0,0,1-.785.785" transform="translate(-19.978 0)"/><path class="c" d="M6.3,39.995h-4A2.3,2.3,0,0,1,0,37.7v-4a.785.785,0,0,1,1.571,0v4a.726.726,0,0,0,.726.725h4a.785.785,0,1,1,0,1.57" transform="translate(0 -19.995)"/><path class="c" d="M37.682,39.995h-4a.785.785,0,1,1,0-1.57h4a.727.727,0,0,0,.726-.725v-4a.785.785,0,0,1,1.571,0v4a2.3,2.3,0,0,1-2.3,2.3" transform="translate(-19.978 -19.995)"/><path d="M19.4,14.06A3.792,3.792,0,1,1,23.2,10.268,3.8,3.8,0,0,1,19.4,14.06m0-6.013a2.222,2.222,0,1,0,2.223,2.222A2.224,2.224,0,0,0,19.4,8.046" transform="translate(-9.481 -3.934)"/><path d="M20.871,32.711a.786.786,0,0,1-.785-.785,5.042,5.042,0,0,0-10.084,0,.785.785,0,0,1-1.571,0,6.613,6.613,0,0,1,13.226,0,.786.786,0,0,1-.785.785" transform="translate(-5.12 -15.378)"/></g></g></svg>