<?xml version="1.0" standalone="no"?>
<!DOCTYPE svg PUBLIC "-//W3C//DTD SVG 20010904//EN"
 "http://www.w3.org/TR/2001/REC-SVG-20010904/DTD/svg10.dtd">
<svg version="1.0" xmlns="http://www.w3.org/2000/svg"
 width="43.000000pt" height="43.000000pt" viewBox="0 0 43.000000 43.000000"
 preserveAspectRatio="xMidYMid meet">

<g transform="translate(0.000000,43.000000) scale(0.100000,-0.100000)"
fill="#000000" stroke="none">
<path d="M12 418 c-9 -9 -12 -68 -12 -205 0 -180 1 -193 19 -203 12 -6 95 -10
200 -10 150 0 182 3 195 16 13 13 16 45 16 195 0 105 -4 188 -10 200 -10 18
-23 19 -203 19 -137 0 -196 -3 -205 -12z m383 -203 l0 -180 -180 0 -180 0 -3
183 -2 182 182 -2 183 -3 0 -180z"/>
<path d="M80 210 l0 -80 55 0 c65 0 74 17 13 22 -35 2 -43 7 -43 23 0 16 8 21
43 23 57 4 54 22 -4 22 -41 0 -45 2 -42 23 2 18 10 23 46 25 61 5 52 22 -13
22 l-55 0 0 -80z"/>
<path d="M230 210 c0 -64 3 -80 15 -80 11 0 15 12 15 47 l0 47 33 -47 c47 -68
57 -62 57 33 0 63 -3 80 -14 80 -11 0 -16 -14 -18 -47 l-3 -48 -30 47 c-44 70
-55 63 -55 -32z"/>
</g>
</svg>
