<svg xmlns="http://www.w3.org/2000/svg" xmlns:xlink="http://www.w3.org/1999/xlink" width="16" height="14.31" viewBox="0 0 16 14.31"><defs><style>.a{fill:#b0b0b0;}.b{clip-path:url(#a);}</style><clipPath id="a"><rect class="a" width="16" height="14.31" transform="translate(0 0)"/></clipPath></defs><g transform="translate(16 14.31) rotate(180)"><g class="b" transform="translate(0 0)"><path class="a" d="M14.6,17.708H.917a.982.982,0,0,1,0-1.96H14.6a.982.982,0,0,1,0,1.96" transform="translate(0 -9.574)"/><path class="a" d="M25.174,14.31a.885.885,0,0,1-.649-.287,1.029,1.029,0,0,1,0-1.386l4.906-5.244a.353.353,0,0,0,0-.475L24.526,1.673a1.029,1.029,0,0,1,0-1.386.876.876,0,0,1,1.3,0l4.906,5.244a2.411,2.411,0,0,1,0,3.249l-4.906,5.243a.885.885,0,0,1-.649.287" transform="translate(-15.358 0)"/></g></g></svg>