<svg xmlns="http://www.w3.org/2000/svg" xmlns:xlink="http://www.w3.org/1999/xlink" width="21.605" height="22" viewBox="0 0 21.605 22"><defs><style>.a{fill:none;}.b{clip-path:url(#a);}.c{fill:#1777ff;}</style><clipPath id="a"><rect class="a" width="21.605" height="22"/></clipPath></defs><g transform="translate(0 0)"><g class="b" transform="translate(0 0)"><path d="M9.9,22H4.6A4.608,4.608,0,0,1,0,17.4V4.6A4.608,4.608,0,0,1,4.6,0h9.9a4.608,4.608,0,0,1,4.6,4.6V8.569a.789.789,0,0,1-1.577,0V4.6a3.029,3.029,0,0,0-3.026-3.026H4.6A3.029,3.029,0,0,0,1.577,4.6V17.4A3.029,3.029,0,0,0,4.6,20.423H9.9A.789.789,0,1,1,9.9,22" transform="translate(0 0)"/><path d="M20.7,11.855h-8.65a.789.789,0,1,1,0-1.577H20.7a.789.789,0,1,1,0,1.577" transform="translate(-6.823 -6.226)"/><path d="M15.187,23.192H12.053a.789.789,0,1,1,0-1.577h3.135a.789.789,0,1,1,0,1.577" transform="translate(-6.823 -13.093)"/><path class="c" d="M39.846,39.536h-2.1a.789.789,0,0,1,0-1.577h2.1a.789.789,0,0,1,0,1.577" transform="translate(-22.386 -22.993)"/><path class="c" d="M37.747,35.768a.789.789,0,0,1-.789-.789V32.527a.789.789,0,0,1,1.577,0v2.453a.789.789,0,0,1-.789.789" transform="translate(-22.387 -19.225)"/><path class="c" d="M29.362,36.609a6.246,6.246,0,1,1,6.246-6.246,6.253,6.253,0,0,1-6.246,6.246m0-10.914a4.668,4.668,0,1,0,4.668,4.668A4.674,4.674,0,0,0,29.362,25.7" transform="translate(-14.003 -14.609)"/></g></g></svg>