<svg xmlns="http://www.w3.org/2000/svg" xmlns:xlink="http://www.w3.org/1999/xlink" width="8" height="7.155" viewBox="0 0 8 7.155"><defs><style>.a{fill:#b0b0b0;}.b{clip-path:url(#a);}</style><clipPath id="a"><rect class="a" width="8" height="7.155"/></clipPath></defs><g class="b" transform="translate(0 0)"><path class="a" d="M7.3,0H.459A.475.475,0,0,0,0,.49.475.475,0,0,0,.459.98H7.3A.475.475,0,0,0,7.761.49.475.475,0,0,0,7.3,0" transform="translate(0 3.087)"/><path class="a" d="M.459,0A.443.443,0,0,0,.134.144a.514.514,0,0,0,0,.693L2.587,3.459a.176.176,0,0,1,0,.238L.134,6.318a.514.514,0,0,0,0,.693.438.438,0,0,0,.649,0L3.236,4.39a1.205,1.205,0,0,0,0-1.624L.783.144A.443.443,0,0,0,.459,0" transform="translate(4.449 0)"/></g></svg>