<svg xmlns="http://www.w3.org/2000/svg" xmlns:xlink="http://www.w3.org/1999/xlink" width="19.082" height="22" viewBox="0 0 19.082 22"><defs><style>.a{fill:none;}.b{clip-path:url(#a);}.c{fill:#1777ff;}</style><clipPath id="a"><rect class="a" width="19.082" height="22"/></clipPath></defs><g transform="translate(0 0)"><g class="b" transform="translate(0 0)"><path d="M9.541,22,8.9,21.711c-.359-.158-8.9-3.99-8.9-9.4V5.12A2.242,2.242,0,0,1,1.46,3.027,48.968,48.968,0,0,0,7.019.57,5.056,5.056,0,0,1,11.433.448c1.2.535,3.252,1.418,6.226,2.582a2.249,2.249,0,0,1,1.423,2.079v7.2c0,5.272-7.989,9-8.9,9.4ZM9.347,1.609A3.433,3.433,0,0,0,7.76,2,50.664,50.664,0,0,1,2.017,4.536a.636.636,0,0,0-.409.585v7.189c0,3.625,5.714,6.946,7.932,7.928.4-.182,7.933-3.69,7.933-7.928v-7.2a.629.629,0,0,0-.4-.581c-3-1.176-5.081-2.07-6.3-2.612a3.5,3.5,0,0,0-1.43-.308" transform="translate(0 0)"/><path class="c" d="M14.326,23.7,10.98,20.357a.8.8,0,1,1,1.137-1.137l2.21,2.21L19.8,15.954a.8.8,0,0,1,1.137,1.137Z" transform="translate(-6.425 -9.399)"/></g></g></svg>