<svg xmlns="http://www.w3.org/2000/svg" xmlns:xlink="http://www.w3.org/1999/xlink" width="23.945" height="22" viewBox="0 0 23.945 22"><defs><style>.a{fill:none;}.b{clip-path:url(#a);}.c{fill:#1777ff;}</style><clipPath id="a"><rect class="a" width="23.945" height="22"/></clipPath></defs><g transform="translate(0 0.001)"><g class="b" transform="translate(0 -0.001)"><path d="M17.077,1.744a.416.416,0,0,1,.347.188l4.7,8.818.012.023.013.022a.421.421,0,0,1,0,.41l-.013.023-.012.023-4.7,8.82a.4.4,0,0,1-.342.185H6.873a.416.416,0,0,1-.347-.188l-4.7-8.818-.012-.023L1.8,11.2a.421.421,0,0,1,0-.41l.013-.022.012-.023,4.7-8.816a.416.416,0,0,1,.348-.19Zm0-1.744H6.869A2.162,2.162,0,0,0,5,1.081l0,.008L.283,9.929a2.167,2.167,0,0,0,0,2.141L4.994,20.9,5,20.919A2.163,2.163,0,0,0,6.873,22H17.081a2.151,2.151,0,0,0,1.866-1.081l0-.008,4.711-8.841a2.167,2.167,0,0,0,0-2.141L18.955,1.1l-.008-.016A2.162,2.162,0,0,0,17.077,0" transform="translate(0 0)"/><path class="c" d="M20.911,15.34A3.324,3.324,0,1,1,18.032,17a3.335,3.335,0,0,1,2.879-1.663m0-1.744A5.069,5.069,0,1,0,25.3,16.131,5.083,5.083,0,0,0,20.911,13.6" transform="translate(-8.935 -7.667)"/></g></g></svg>