<svg xmlns="http://www.w3.org/2000/svg" xmlns:xlink="http://www.w3.org/1999/xlink" width="55.846" height="45.132" viewBox="0 0 55.846 45.132"><defs><style>.a,.c,.e{fill:none;}.b{clip-path:url(#a);}.c{stroke:#000;}.c,.e{stroke-linecap:round;stroke-miterlimit:10;stroke-width:3px;}.d{fill:#1777ff;}.e{stroke:#1777ff;}</style><clipPath id="a"><rect class="a" width="55.846" height="45.132" transform="translate(0 0)"/></clipPath></defs><g transform="translate(0 0)"><g class="b"><path class="c" d="M40.421,8.429a3.086,3.086,0,0,1-2.7-1.588L35.639,3.088a3.086,3.086,0,0,0-2.7-1.588H18.058a3.086,3.086,0,0,0-2.7,1.588L13.276,6.841a3.086,3.086,0,0,1-2.7,1.588H4.586A3.086,3.086,0,0,0,1.5,11.515V40.547a3.086,3.086,0,0,0,3.086,3.086H46.413A3.086,3.086,0,0,0,49.5,40.547V17.893"/><path class="d" d="M25.5,20.51a5.923,5.923,0,1,1-5.924,5.924A5.931,5.931,0,0,1,25.5,20.51m0-3a8.923,8.923,0,1,0,8.924,8.924A8.924,8.924,0,0,0,25.5,17.51"/><line class="c" x2="6.526" transform="translate(6.571 15.347)"/><line class="e" x2="9.708" transform="translate(44.638 8.618)"/><line class="e" y2="9.708" transform="translate(49.492 3.764)"/></g></g></svg>