<svg xmlns="http://www.w3.org/2000/svg" xmlns:xlink="http://www.w3.org/1999/xlink" width="22.054" height="22" viewBox="0 0 22.054 22"><defs><style>.a{fill:none;}.b{clip-path:url(#a);}.c{fill:#333;}.d{fill:#1777ff;}</style><clipPath id="a"><rect class="a" width="22.054" height="22" transform="translate(0 0)"/></clipPath></defs><g class="b" transform="translate(0 0)"><path class="c" d="M20.978,10.944C20.978,3.757,17.6,0,11.052,0S1.126,3.757,1.072,11A2.94,2.94,0,0,0,0,13.254v2.573a2.978,2.978,0,0,0,2.256,2.845l.536.107a2.01,2.01,0,0,0,.59.054A2.518,2.518,0,0,0,5.9,16.309V12.664a2.449,2.449,0,0,0-.054-.594,2.531,2.531,0,0,0-3.056-1.823H2.738C2.952,4.4,5.687,1.608,11.052,1.608s8.1,2.792,8.264,8.586h-.054a2.01,2.01,0,0,0-.59-.054,2.521,2.521,0,0,0-2.524,2.524v3.646a2.4,2.4,0,0,0,.054.59,2.552,2.552,0,0,0,1.926,1.876,6.19,6.19,0,0,0,1.723-.157,2.934,2.934,0,0,0,2.2-2.845V13.2a3.016,3.016,0,0,0-1.076-2.256m-17.811.8a.966.966,0,0,1,1.126.7.322.322,0,0,1,.054.214v3.646a.943.943,0,0,1-.911.915c-.054,0-.161-.054-.214-.054l-.536-.107a1.38,1.38,0,0,1-1.022-1.291V13.2a1.521,1.521,0,0,1,.969-1.344Zm17.275,4.078a1.377,1.377,0,0,1-1.019,1.291l-.536.107a.923.923,0,0,1-1.072-.647.322.322,0,0,1-.054-.214V12.717a.943.943,0,0,1,.911-.915c.054,0,.161.054.214.054l.536.107a1.377,1.377,0,0,1,1.019,1.291Z" transform="translate(0 0)"/><path class="d" d="M36.364,48.62a3.946,3.946,0,0,1-.218.8A4.023,4.023,0,0,1,32.393,52H27.564a.806.806,0,0,1,0-1.612h4.829a2.367,2.367,0,0,0,2.045-1.164,2.252,2.252,0,0,0,.211-.444s0,0-.008,0a6.19,6.19,0,0,0,1.723-.157" transform="translate(-16.512 -30.001)"/></g></svg>