<svg xmlns="http://www.w3.org/2000/svg" xmlns:xlink="http://www.w3.org/1999/xlink" width="17.451" height="16" viewBox="0 0 17.451 16"><defs><style>.a{fill:none;}.b{clip-path:url(#a);}.c{fill:#1777ff;}</style><clipPath id="a"><rect class="a" width="17.451" height="16"/></clipPath></defs><g transform="translate(0 0)"><g class="b" transform="translate(0 0)"><path class="c" d="M46.259,25.251H43.1a.615.615,0,0,1,0-1.23h3.159a.615.615,0,0,1,0,1.23" transform="translate(-29.423 -16.636)"/><path class="c" d="M12.993,23.229a.615.615,0,0,1-.615-.615v-3.16a.615.615,0,0,1,1.23,0v3.16a.615.615,0,0,1-.615.615" transform="translate(-8.572 -13.048)"/><path class="c" d="M43.1,9.183a.615.615,0,0,1-.287-1.159l2.8-1.47a.615.615,0,0,1,.572,1.089l-2.8,1.471a.612.612,0,0,1-.286.07" transform="translate(-29.423 -4.49)"/><path class="c" d="M45.9,38.531a.612.612,0,0,1-.286-.07l-2.8-1.471a.615.615,0,0,1,.572-1.089l2.8,1.47a.615.615,0,0,1-.287,1.159" transform="translate(-29.423 -24.814)"/><path d="M10.773,1.23a.057.057,0,0,1,.031.007.079.079,0,0,1,.028.067V14.7a.055.055,0,0,1-.024.048l-.024.014-.012.008-.02,0h-.009L4.8,11.305l-.287-.167H1.242c-.006,0-.011-.006-.012-.006h0V4.864s.008-.01.013-.01H4.514L4.8,4.687l5.911-3.444a.191.191,0,0,1,.062-.013m0-1.23a1.455,1.455,0,0,0-.617.143L4.182,3.624H1.242A1.244,1.244,0,0,0,0,4.86v6.273a1.243,1.243,0,0,0,1.242,1.235h2.94l6.022,3.51a1.293,1.293,0,0,0,1.252-.086,1.284,1.284,0,0,0,.607-1.094V1.3A1.286,1.286,0,0,0,10.773,0" transform="translate(0 0)"/></g></g></svg>