<svg xmlns="http://www.w3.org/2000/svg" xmlns:xlink="http://www.w3.org/1999/xlink" width="36" height="36" viewBox="0 0 36 36"><defs><style>.a{fill:none;}.b{clip-path:url(#a);}.c{fill:#1777ff;}</style><clipPath id="a"><rect class="a" width="29.32" height="26" transform="translate(0 0)"/></clipPath></defs><g transform="translate(4 5)"><g class="b" transform="translate(0 -0.001)"><path class="c" d="M53.931,48.4H47.277a1.107,1.107,0,0,1,0-2.215h6.654a1.107,1.107,0,1,1,0,2.215" transform="translate(-25.719 -25.727)"/><path class="c" d="M54.789,47.543a1.107,1.107,0,0,1-1.107-1.107V39.781a1.107,1.107,0,1,1,2.215,0v6.654a1.107,1.107,0,0,1-1.107,1.107" transform="translate(-29.903 -21.543)"/><path d="M24.956,2.215A2.988,2.988,0,1,1,21.967,5.2a2.992,2.992,0,0,1,2.989-2.989m0-2.215a5.2,5.2,0,1,0,5.2,5.2,5.2,5.2,0,0,0-5.2-5.2" transform="translate(-11.003 0)"/><path d="M1.107,38.771A1.107,1.107,0,0,1,0,37.663,13.954,13.954,0,0,1,24.787,28.87a1.107,1.107,0,0,1-1.719,1.4,11.739,11.739,0,0,0-20.853,7.4,1.107,1.107,0,0,1-1.107,1.107" transform="translate(0 -13.207)"/><path d="M28.517,40.337a3.042,3.042,0,0,1-2.993,2.37L25.3,43.87H24.228l.239-1.241a2.817,2.817,0,0,1-2.108-1.819l1.135-.784a2.282,2.282,0,0,0,1.258,1.152l.573-2.937a2.386,2.386,0,0,1-1.469-2.653,2.821,2.821,0,0,1,2.4-2.108l.189-.974H27.51l-.189.968a2.247,2.247,0,0,1,1.875,1.6l-1.146.774a1.365,1.365,0,0,0-1-.979l-.489,2.509.167.095c1.262.739,2.052,1.6,1.791,2.864m-2.9-3.565.35-1.808a1.3,1.3,0,0,0-.718.907.908.908,0,0,0,.367.9m.662,2.058L25.8,41.266a1.426,1.426,0,0,0,1.285-1.018c.117-.59-.306-1.057-.812-1.418" transform="translate(-12.455 -18.106)"/></g><rect class="a" width="36" height="36" transform="translate(-4 -5)"/></g></svg>