<svg xmlns="http://www.w3.org/2000/svg" xmlns:xlink="http://www.w3.org/1999/xlink" width="21.617" height="22" viewBox="0 0 21.617 22"><defs><style>.a{fill:none;}.b{clip-path:url(#a);}.c{fill:#1777ff;}</style><clipPath id="a"><rect class="a" width="21.617" height="22"/></clipPath></defs><g class="b"><path d="M10.808,1.517a6.028,6.028,0,0,1,6.034,6.022,16.573,16.573,0,0,0,1.688,7.949,8.6,8.6,0,0,0,.88,1.32H2.205a8.613,8.613,0,0,0,.88-1.319,16.416,16.416,0,0,0,1.688-7.95A5.976,5.976,0,0,1,6.542,3.28a6.072,6.072,0,0,1,4.265-1.763Zm0-1.517h0A7.546,7.546,0,0,0,3.256,7.539a14.9,14.9,0,0,1-1.5,7.221,6.472,6.472,0,0,1-.961,1.358,3.5,3.5,0,0,1-.281.266.593.593,0,0,1-.059.047,0,0,0,0,0,0,0,1.037,1.037,0,0,0,.587,1.892H20.579a1.037,1.037,0,0,0,.587-1.892l0,0c-.009-.006-.028-.022-.059-.047a3.515,3.515,0,0,1-.281-.266,6.471,6.471,0,0,1-.962-1.358,14.923,14.923,0,0,1-1.5-7.221A7.546,7.546,0,0,0,10.808,0" transform="translate(0 0)"/><path class="c" d="M18.008,53.6a14.524,14.524,0,0,1-5.943-1.257.742.742,0,0,1,.6-1.356,13.185,13.185,0,0,0,10.707-.013.742.742,0,0,1,.607,1.355A14.527,14.527,0,0,1,18.008,53.6Z" transform="translate(-7.215 -31.597)"/></g></svg>