<svg xmlns="http://www.w3.org/2000/svg" xmlns:xlink="http://www.w3.org/1999/xlink" width="36" height="36" viewBox="0 0 36 36"><defs><style>.a{fill:none;}.b{clip-path:url(#a);}.c{fill:#1777ff;}</style><clipPath id="a"><rect class="a" width="32.223" height="26" transform="translate(0 0)"/></clipPath></defs><g transform="translate(1.825 5)"><g class="b" transform="translate(0 0)"><path d="M28.624,19.667a.855.855,0,0,1,.854.854V32.4a.855.855,0,0,1-.854.854H8.591a.855.855,0,0,1-.854-.854V20.521a.855.855,0,0,1,.854-.854Zm0-2.265H8.591a3.119,3.119,0,0,0-3.119,3.119V32.4A3.119,3.119,0,0,0,8.591,35.52H28.624A3.119,3.119,0,0,0,31.743,32.4V20.521A3.119,3.119,0,0,0,28.624,17.4" transform="translate(-2.993 -9.52)"/><path d="M2.213,17.689.119,9.167A4.059,4.059,0,0,1,3.094,4.255L19.932.119a4.061,4.061,0,0,1,4.912,2.974l1.4,5.687-2.2.54-1.4-5.687a1.8,1.8,0,0,0-2.172-1.316L3.634,6.454A1.8,1.8,0,0,0,2.319,8.626l2.093,8.523Z" transform="translate(0 0)"/><path class="c" d="M52.632,37.168H40.508a1.132,1.132,0,0,1,0-2.265H52.632a1.132,1.132,0,1,1,0,2.265" transform="translate(-21.541 -19.094)"/><path class="c" d="M43.392,36.41a1.13,1.13,0,0,1-.8-.332L39.5,32.985a1.911,1.911,0,0,1,0-2.7l3.094-3.094a1.133,1.133,0,1,1,1.6,1.6L41.35,31.635l2.843,2.842a1.132,1.132,0,0,1-.8,1.933" transform="translate(-21.302 -14.694)"/></g><rect class="a" width="36" height="36" transform="translate(-1.825 -5)"/></g></svg>