<svg xmlns="http://www.w3.org/2000/svg" xmlns:xlink="http://www.w3.org/1999/xlink" width="36" height="36" viewBox="0 0 36 36"><defs><style>.a{fill:none;}.b{clip-path:url(#a);}.c{fill:#1777ff;}</style><clipPath id="a"><rect class="a" width="26" height="22.013"/></clipPath></defs><g transform="translate(5 6.994)"><g class="b" transform="translate(0 0)"><path d="M24.738,9.007H1.086a1.085,1.085,0,0,1,0-2.17H22.545L17.562,1.853A1.085,1.085,0,0,1,19.1.318L25.63,6.852a1.262,1.262,0,0,1-.892,2.155" transform="translate(-0.001 0)"/><path class="c" d="M7.672,38.969a1.083,1.083,0,0,1-.767-.318L.37,32.117a1.262,1.262,0,0,1,.892-2.155H24.914a1.085,1.085,0,1,1,0,2.17H3.455l4.984,4.983a1.085,1.085,0,0,1-.767,1.853" transform="translate(0 -16.956)"/></g><rect class="a" width="36" height="36" transform="translate(-5 -6.994)"/></g></svg>