<svg xmlns="http://www.w3.org/2000/svg" xmlns:xlink="http://www.w3.org/1999/xlink" width="28" height="28" viewBox="0 0 28 28"><defs><style>.a{fill:none;}.b{clip-path:url(#a);}.c{fill:#f6f7fb;}.d{fill:#1777ff;}</style><clipPath id="a"><rect class="a" width="28" height="28" transform="translate(0 0)"/></clipPath></defs><g transform="translate(0 0)"><g class="b" transform="translate(0 0)"><path class="c" d="M28,14a13.946,13.946,0,0,1-3.438,9.189c-.1.111-.2.222-.3.33a14,14,0,0,1-20.4.141c-.048-.048-.093-.1-.133-.148A14,14,0,1,1,28,14" transform="translate(0 0)"/><path class="d" d="M20.347,11.34a5.448,5.448,0,0,0-5.45,5.45h0a5.45,5.45,0,1,0,5.454-5.45m1.4,11.89h-2.8a9,9,0,0,0-8.863,7.421c.041.048.085.1.133.148a14,14,0,0,0,20.4-.141,9,9,0,0,0-8.863-7.429m.085,6.936-1.486.993-1.489-.993.993-4.954-.993-.989h2.975l-.993.989Z" transform="translate(-6.345 -7.138)"/></g></g></svg>