<svg xmlns="http://www.w3.org/2000/svg" xmlns:xlink="http://www.w3.org/1999/xlink" width="36" height="36" viewBox="0 0 36 36"><defs><style>.a{fill:none;}.b{clip-path:url(#a);}.c{fill:#1777ff;}</style><clipPath id="a"><rect class="a" width="26" height="26.239"/></clipPath></defs><g transform="translate(4.881 4.7)"><g class="b" transform="translate(0 0)"><path d="M21.356,45.149H4.644A4.65,4.65,0,0,1,0,40.5V34.529a1.086,1.086,0,0,1,2.173,0V40.5a2.474,2.474,0,0,0,2.471,2.472H21.356A2.474,2.474,0,0,0,23.828,40.5V34.529a1.086,1.086,0,1,1,2.173,0V40.5a4.65,4.65,0,0,1-4.644,4.645" transform="translate(0 -18.909)"/><path class="c" d="M28.5,19.69A1.086,1.086,0,0,1,27.414,18.6V2.39a1.086,1.086,0,0,1,2.173,0V18.6A1.086,1.086,0,0,1,28.5,19.69" transform="translate(-15.501 -0.737)"/><path class="c" d="M26.44,8.411a1.084,1.084,0,0,1-.768-.318L19.86,2.281a.373.373,0,0,0-.527,0L13.521,8.093a1.087,1.087,0,0,1-1.537-1.537L17.8.745a2.547,2.547,0,0,1,3.6,0l5.812,5.812a1.086,1.086,0,0,1-.768,1.855" transform="translate(-6.596 0)"/></g><rect class="a" width="36" height="36" transform="translate(-4.881 -4.7)"/></g></svg>